<?xml version="1.0" encoding="UTF-8"?><svg id="Vrstva_2" xmlns="http://www.w3.org/2000/svg" viewBox="0 0 612.0439 133.7683"><g id="Components"><g id="_1320f434-0541-4b2f-a107-a67a029b456b_1"><path d="M126.6431,24.0981v64.3498c0,24.9816-20.3386,45.3204-45.3364,45.3204s-45.3204-20.3387-45.3204-45.3204v-43.1195l18.7003,14.748v28.3715c0,14.6837,11.9365,26.6202,26.62,26.6202s26.6365-11.9366,26.6365-26.6202V9.3501l18.6999,14.748Z" style="fill:#36f; stroke-width:0px;"/><path d="M0,109.6702V45.3204C0,20.3387,20.3386,0,45.3364,0s45.3204,20.3387,45.3204,45.3204v43.1195l-18.7003-14.748v-28.3715c0-14.6837-11.9365-26.6202-26.62-26.6202s-26.6365,11.9366-26.6365,26.6202v79.0978L0,109.6702Z" style="fill:#36f; stroke-width:0px;"/><path d="M428.9881,102.9908c-.6238-.8912-.9802-2.4061-1.0991-4.6638-.0743-2.7329-.104-5.035-.104-6.9509v-27.4922c0-6.9065-2.3467-11.4662-7.1589-13.9317-4.9459-2.525-10.6939-3.8023-17.0805-3.8023-9.7432,0-16.6794,2.5398-20.6153,7.56-2.317,3.015-3.7132,6.8767-4.1439,11.481h13.4118c.4308-2.1091,1.1883-3.8469,2.2577-5.1687,1.7081-2.0349,4.5895-3.0744,8.5403-3.0744,3.4903,0,6.0895.5049,7.9312,1.5148,2.0051,1.0991,3.03,3.0746,3.03,5.8668,0,1.6485-.6833,3.9062-3.8914,5.2726-1.3368.5793-3.4458,1.0546-6.4609,1.4408l-5.332.6536c-5.8965.7575-10.3968,2.005-13.3971,3.7428-5.436,3.1488-8.0798,8.1244-8.0798,15.2239,0,5.3767,1.6784,9.5799,5.0053,12.491,3.3419,2.926,7.664,4.4261,12.8476,4.4261,2.5887,0,5.0065-.4271,7.2641-1.1811l-.0815.0756s7.4679-2.1822,12.5583-7.6987h0l.0575.7095c.1039,1.3368.2525,2.5398.4306,3.5497.1337.8318.3862,1.7229.7278,2.6734h15.521v-.8762c-.906-.505-1.6338-1.1139-2.1388-1.8417ZM393.327,95.9803c-1.7229-1.3515-2.5992-3.52-2.5992-6.4757,0-3.3269,1.3665-5.8222,4.0696-7.4114,1.5448-.9209,3.9509-1.6486,7.3818-2.2577l3.52-.6683c1.6932-.3119,3.0447-.6536,3.9953-1.0249.9506-.3565,1.9011-.8466,2.8368-1.4258l1.3665-.8615v7.4561c-.1189,5.5103-1.7378,9.4016-4.8123,11.5404-2.9705,2.0794-6.2826,3.1339-9.8175,3.1339-2.3318,0-4.3369-.6832-5.941-2.0051Z" style="fill:#201649; stroke-width:0px;"/><path d="M485.9582,54.4377c-4.2626-5.4212-10.2482-8.1838-17.7933-8.1838-4.1736,0-7.6342.8762-10.3077,2.6141-2.2725,1.3961-4.3816,3.4605-6.2826,6.134l-1.619,2.2873v-30.7151h-13.8277v79.1344h13.5604v-7.6656c2.76,3.4907,7.2035,6.4329,7.2035,6.4329,2.8368,1.8714,6.6836,2.822,11.4364,2.822,7.6492,0,13.4268-2.8814,17.6895-8.8076,4.2626-5.9411,6.4311-13.5456,6.4311-22.6205,0-8.7333-2.1833-15.9369-6.4906-21.4322ZM474.2842,90.8859c-2.4061,3.5052-5.8074,5.2726-10.1295,5.2726-4.9459,0-8.7036-1.8268-11.1394-5.4509-2.3615-3.4903-3.5499-7.9461-3.5499-13.2485,0-4.4408.5793-8.1392,1.7081-10.9909,2.2724-5.5103,6.4906-8.3025,12.5356-8.3025,5.9856,0,10.1443,2.8516,12.3722,8.4807,1.1288,2.8666,1.7081,6.5352,1.7081,10.8721,0,5.4657-1.1733,9.9661-3.5052,13.3673Z" style="fill:#201649; stroke-width:0px;"/><polygon points="204.7164 85.4944 171.0456 26.4703 154.693 26.4703 154.693 105.7087 168.6841 105.7087 168.6841 45.7193 203.1866 105.7087 218.7076 105.7087 218.7076 26.4703 204.7164 26.4703 204.7164 85.4944" style="fill:#201649; stroke-width:0px;"/><path d="M275.0243,57.23c-2.4953-3.8766-5.7035-6.7431-9.5206-8.5255-3.8616-1.812-8.2581-2.7179-13.0852-2.7179-8.1094,0-14.7782,2.6883-19.8281,8.0203-5.0795,5.3321-7.6491,13.1595-7.6491,23.2444,0,10.7384,2.8368,18.5656,8.4215,23.274,5.629,4.7528,12.2236,7.1589,19.6053,7.1589,8.9116,0,15.9369-2.8368,20.8827-8.4511,2.8368-3.1487,4.5746-6.2826,5.1688-9.3273h-14.4071c-.8318,1.6188-1.7971,2.9259-2.8665,3.8913-2.1685,1.9753-5.0202,2.9705-8.4511,2.9705-3.223,0-6.0153-.8169-8.3027-2.4061-3.7873-2.5695-5.8222-7.0698-6.0598-13.3525l-.0298-.9209h41.0525c.0297-4.6636-.1337-8.3174-.505-10.8424-.6683-4.5448-2.1537-8.5847-4.426-12.0156ZM239.1999,71.5479l.1336-1.01c.5347-4.0547,1.8715-7.3074,3.9805-9.7135,2.1537-2.4656,5.2281-3.7132,9.1046-3.7132,3.5499,0,6.5797,1.1733,8.9859,3.4607,2.4209,2.3021,3.7725,5.6736,4.0398,10.0255l.0594.9505h-26.3039Z" style="fill:#201649; stroke-width:0px;"/><path d="M303.4181,31.4162h-13.7237v16.7092h-8.3472v9.3719h8.3472v37.785c0,3.4755.8019,6.0598,2.3912,7.6788,2.3021,2.3912,6.5797,3.5942,12.7287,3.5942.5643,0,1.1584,0,1.7674-.0296l6.5649-.2377v-9.9066c-.2228.0149-.4307.0297-.6536.0297-.5346.0149-1.0545.0297-1.5445.0297-4.5598,0-5.7777-.6239-6.3273-1.1585-.8318-.8021-1.2031-2.4655-1.2031-5.2281v-32.5569h9.7285v-9.3719h-9.7285v-16.7092Z" style="fill:#201649; stroke-width:0px;"/><polygon points="323.0489 105.7087 338.0946 105.7087 338.0946 71.7409 373.6516 71.7409 373.6516 59.443 338.0946 59.443 338.0946 39.0356 378.7015 39.0356 378.7015 26.5743 323.0489 26.5743 323.0489 105.7087" style="fill:#201649; stroke-width:0px;"/><path d="M530.2146,46.1499c-4.4408,0-8.0946,1.1733-10.8572,3.4756,0,0-2.9031,2.2707-7.7827,8.7992v-10.8488h-13.1594v58.1328h13.9911v-27.7445c0-4.9905.6238-8.6145,1.9161-11.08,2.317-4.3964,6.8469-6.6392,13.486-6.6392.4753,0,1.114.0297,1.9012.0594.5198.0297,1.0842.0743,1.708.1187v-14.2139c-.2525-.0149-.4306-.0297-.5346-.0446-.1783-.0149-.401-.0149-.6684-.0149Z" style="fill:#201649; stroke-width:0px;"/><rect x="537.8149" y="47.5758" width="14.11" height="58.1328" style="fill:#201649; stroke-width:0px;"/><rect x="537.8149" y="25.9801" width="14.11" height="12.6693" style="fill:#201649; stroke-width:0px;"/><path d="M586.5568,57.6161c3.9805,0,6.9807,1.3368,8.9264,4.0102,1.1436,1.6932,1.9011,3.5944,2.2725,5.6588h14.2881c-.9506-7.7085-3.6537-13.1742-8.0055-16.2487-4.6043-3.2379-10.6345-4.8865-17.9271-4.8865-8.5253,0-15.2832,2.7774-20.1103,8.2729-4.8419,5.5251-7.3076,13.3971-7.3076,23.4225,0,8.8817,2.2279,16.1892,6.6243,21.7144,4.3518,5.4658,11.2731,8.2284,20.5707,8.2284s16.3825-3.327,21.1056-9.9066c2.7626-3.8023,4.3964-7.872,4.9014-12.105h-14.214c-.4158,2.9557-1.3962,5.4212-2.8962,7.3521-1.7081,2.1981-4.5746,3.3121-8.5105,3.3121-5.5548,0-9.3869-2.7032-11.3771-8.0501-1.0694-2.7626-1.6041-6.4312-1.6041-10.9315,0-4.6934.5347-8.5402,1.5892-11.4067,2.0794-5.5994,6.0004-8.4364,11.6741-8.4364Z" style="fill:#201649; stroke-width:0px;"/></g></g></svg>