<?xml version="1.0" encoding="UTF-8" standalone="no"?>
<!-- Created with Inkscape (http://www.inkscape.org/) -->

<svg
   width="52.298mm"
   height="7.4083099mm"
   viewBox="0 0 52.298 7.4083099"
   version="1.1"
   id="svg1"
   inkscape:version="1.3.2 (1:1.3.2+202311252150+091e20ef0f)"
   sodipodi:docname="netfabric.svg"
   xmlns:inkscape="http://www.inkscape.org/namespaces/inkscape"
   xmlns:sodipodi="http://sodipodi.sourceforge.net/DTD/sodipodi-0.dtd"
   xmlns="http://www.w3.org/2000/svg"
   xmlns:svg="http://www.w3.org/2000/svg">
  <sodipodi:namedview
     id="namedview1"
     pagecolor="#ffffff"
     bordercolor="#666666"
     borderopacity="1.0"
     inkscape:showpageshadow="2"
     inkscape:pageopacity="0.0"
     inkscape:pagecheckerboard="0"
     inkscape:deskcolor="#d1d1d1"
     inkscape:document-units="mm"
     showgrid="false"
     inkscape:zoom="2.9631822"
     inkscape:cx="-10.799201"
     inkscape:cy="63.10783"
     inkscape:window-width="2496"
     inkscape:window-height="1376"
     inkscape:window-x="64"
     inkscape:window-y="27"
     inkscape:window-maximized="1"
     inkscape:current-layer="layer1">
    <inkscape:grid
       id="grid1"
       units="px"
       originx="-76.814278"
       originy="-65.03746"
       spacingx="0.26458333"
       spacingy="0.26458334"
       empcolor="#3f3fff"
       empopacity="0.25098039"
       color="#3f3fff"
       opacity="0.1254902"
       empspacing="5"
       dotted="false"
       gridanglex="30"
       gridanglez="30"
       visible="false" />
  </sodipodi:namedview>
  <defs
     id="defs1" />
  <g
     inkscape:label="Layer 1"
     inkscape:groupmode="layer"
     id="layer1"
     transform="translate(-76.814282,-65.037461)">
    <g
       id="text1"
       style="font-size:10.5833px;line-height:1.25;letter-spacing:0px;word-spacing:0px;stroke-width:0.264583"
       aria-label="netfabric">
      <path
         style="font-family:Norwester;-inkscape-font-specification:Norwester"
         d="m 89.382888,65.037461 c -0.116416,0 -0.169332,0.0635 -0.169332,0.169332 v 4.011071 l -1.989661,-4.042821 c -0.04233,-0.09525 -0.09525,-0.137582 -0.190499,-0.137582 h -0.836081 c -0.105833,0 -0.169333,0.0635 -0.169333,0.169332 v 7.069644 c 0,0.105833 0.0635,0.169333 0.169333,0.169333 h 0.99483 c 0.116417,0 0.169333,-0.0635 0.169333,-0.169333 v -4.01107 l 1.989661,4.04282 c 0.04233,0.09525 0.09525,0.137583 0.190499,0.137583 h 0.836081 c 0.105833,0 0.169332,-0.0635 0.169332,-0.169333 v -7.069644 c 0,-0.105833 -0.0635,-0.169332 -0.169332,-0.169332 z m 6.445214,0.169332 c 0,-0.105833 -0.04233,-0.169332 -0.169333,-0.169332 h -3.894654 c -0.09525,0 -0.15875,0.0635 -0.15875,0.169332 v 7.069644 c 0,0.105833 0.0635,0.169333 0.15875,0.169333 h 3.894654 c 0.127,0 0.169333,-0.0635 0.169333,-0.169333 v -1.058329 c 0,-0.116417 -0.04233,-0.169333 -0.169333,-0.169333 h -2.614075 v -1.566329 h 1.989661 c 0.105833,0 0.169332,-0.0635 0.169332,-0.179916 v -1.047746 c 0,-0.116417 -0.0635,-0.179916 -0.169332,-0.179916 h -1.989661 v -1.629829 h 2.614075 c 0.127,0 0.169333,-0.07408 0.169333,-0.179916 z m 4.698968,-0.169332 c 0.11641,0 0.16933,0.0635 0.16933,0.169332 v 1.05833 c 0,0.105833 -0.0529,0.169333 -0.16933,0.169333 h -1.227665 v 5.841981 c 0,0.116417 -0.05292,0.169333 -0.169332,0.169333 H 98.02941 c -0.105833,0 -0.169333,-0.05292 -0.169333,-0.169333 v -5.841981 h -1.227663 c -0.105833,0 -0.169333,-0.0635 -0.169333,-0.169333 v -1.05833 c 0,-0.105833 0.0635,-0.169332 0.169333,-0.169332 z"
         id="path3" />
      <path
         style="font-family:Norwester;-inkscape-font-specification:Norwester;fill:#3366ff;fill-opacity:1"
         d="m 105.77637,65.206793 c 0,-0.105833 -0.0635,-0.169332 -0.16933,-0.169332 h -3.89465 c -0.11642,0 -0.16934,0.0635 -0.16934,0.169332 v 7.069644 c 0,0.105833 0.0529,0.169333 0.16934,0.169333 h 1.10066 c 0.10583,0 0.16933,-0.0635 0.16933,-0.169333 v -2.635241 h 1.98966 c 0.10584,0 0.16934,-0.05292 0.16934,-0.169333 v -1.05833 c 0,-0.105833 -0.0635,-0.169333 -0.16934,-0.169333 h -1.98966 v -1.809744 h 2.62466 c 0.10583,0 0.16933,-0.0635 0.16933,-0.169333 z m 4.9953,7.238977 c 0.127,0 0.17991,-0.0635 0.14816,-0.179916 l -1.75682,-7.080227 c -0.0212,-0.105833 -0.0847,-0.148166 -0.17992,-0.148166 h -1.47108 c -0.0953,0 -0.15875,0.04233 -0.17992,0.148166 l -1.75682,7.080227 c -0.0318,0.116416 0.0212,0.179916 0.13758,0.179916 h 1.03716 c 0.0952,0 0.14817,-0.05292 0.16934,-0.148166 l 0.32808,-1.333496 h 1.98966 l 0.33866,1.333496 c 0.0212,0.09525 0.0741,0.148166 0.16934,0.148166 z m -1.86266,-2.709324 h -1.3335 l 0.66675,-2.878658 z m 7.11197,-3.17499 c 0,-0.994831 -0.53975,-1.523995 -1.53458,-1.523995 h -2.53999 c -0.10584,0 -0.16934,0.05292 -0.16934,0.169332 v 7.069644 c 0,0.105833 0.0635,0.169333 0.16934,0.169333 h 2.53999 c 0.99483,0 1.53458,-0.529165 1.53458,-1.523995 v -1.407579 c 0,-0.391582 -0.28575,-0.687914 -0.66675,-0.751414 v -0.02117 c 0.381,-0.0635 0.66675,-0.359832 0.66675,-0.751414 z m -1.34408,1.079496 c 0,0.264583 -0.14817,0.412749 -0.42333,0.412749 h -1.16417 v -1.682745 h 1.16417 c 0.28575,0 0.42333,0.148166 0.42333,0.423332 z m 0,3.047991 c 0,0.285749 -0.14817,0.423332 -0.42333,0.423332 h -1.16417 v -1.661579 h 1.16417 c 0.28575,0 0.42333,0.148167 0.42333,0.423332 z m 6.63572,-4.127487 c 0,-0.994831 -0.52916,-1.523995 -1.52399,-1.523995 h -2.54 c -0.10583,0 -0.16933,0.0635 -0.16933,0.169332 v 7.069644 c 0,0.105833 0.0635,0.169333 0.16933,0.169333 h 1.03717 c 0.10583,0 0.16933,-0.0635 0.16933,-0.169333 v -2.063743 h 0.94191 l 0.508,2.08491 c 0.0212,0.09525 0.0741,0.148166 0.17992,0.148166 h 1.03716 c 0.11642,0 0.17992,-0.0635 0.14817,-0.190499 l -0.55033,-2.27541 c 0.39158,-0.243415 0.59266,-0.677331 0.59266,-1.291162 z m -2.85749,2.285992 v -2.444742 h 1.05833 c 0.27517,0 0.42333,0.148166 0.42333,0.423332 v 1.598078 c 0,0.275166 -0.14816,0.423332 -0.42333,0.423332 z m 4.08513,3.598322 c -0.11641,0 -0.16933,-0.0635 -0.16933,-0.169333 v -7.069644 c 0,-0.105833 0.0529,-0.169332 0.16933,-0.169332 h 1.10067 c 0.10583,0 0.16933,0.0635 0.16933,0.169332 v 7.069644 c 0,0.105833 -0.0635,0.169333 -0.16933,0.169333 z m 6.57221,-5.884314 c 0,-0.994831 -0.53975,-1.523995 -1.52399,-1.523995 h -1.18533 c -0.99483,0 -1.53458,0.529164 -1.53458,1.523995 v 4.360319 c 0,0.99483 0.53975,1.523995 1.53458,1.523995 h 1.18533 c 0.98424,0 1.52399,-0.529165 1.52399,-1.523995 v -1.142996 c 0,-0.105833 -0.0635,-0.169333 -0.16933,-0.169333 h -0.99483 c -0.11642,0 -0.16933,0.0635 -0.16933,0.169333 v 0.89958 c 0,0.285749 -0.14817,0.423332 -0.42333,0.423332 h -0.67734 c -0.27516,0 -0.42333,-0.137583 -0.42333,-0.423332 v -3.841738 c 0,-0.275165 0.13759,-0.423332 0.42333,-0.423332 h 0.67734 c 0.27516,0 0.42333,0.148167 0.42333,0.423332 v 0.867831 c 0,0.105833 0.0529,0.169333 0.16933,0.169333 h 0.99483 c 0.10583,0 0.16933,-0.0635 0.16933,-0.169333 z"
         id="path4" />
    </g>
    <g
       id="g2"
       transform="translate(-0.52916667,-0.01843711)">
      <path
         style="fill:none;stroke:#000000;stroke-width:0.888099;stroke-linecap:butt;stroke-linejoin:miter;stroke-dasharray:none;stroke-opacity:1"
         d="m 81.983515,66.959397 -10e-7,-1.342728 h -4.196016 v 4.196022 h 4.196016 l 10e-7,-1.342728"
         id="path1"
         sodipodi:nodetypes="cccccc" />
      <path
         style="fill:none;stroke:#3366ff;stroke-width:0.888099;stroke-linecap:butt;stroke-linejoin:miter;stroke-dasharray:none;stroke-opacity:1"
         d="m 79.878238,69.050142 10e-7,-1.342728 h 4.196016 v 4.196022 h -4.196016 l -10e-7,-1.342728"
         id="path2"
         sodipodi:nodetypes="cccccc" />
    </g>
  </g>
</svg>
